<?xml version="1.0" encoding="UTF-8"?>
<svg id="Layer_1" xmlns="http://www.w3.org/2000/svg" version="1.1" xmlns:xlink="http://www.w3.org/1999/xlink" viewBox="0 0 512 512">
  <!-- Generator: Adobe Illustrator 29.1.0, SVG Export Plug-In . SVG Version: 2.1.0 Build 142)  -->
  <defs>
    <style>
      .st0 {
        fill: url(#radial-gradient);
      }

      .st1 {
        fill: #fffcdc;
      }

      .st2 {
        fill: #4f3c17;
      }

      .st3 {
        fill: #cd8724;
      }
    </style>
    <radialGradient id="radial-gradient" cx="256" cy="256" fx="256" fy="256" r="236" gradientUnits="userSpaceOnUse">
      <stop offset="0" stop-color="#cd8724"/>
      <stop offset=".8" stop-color="#fbe769"/>
    </radialGradient>
  </defs>
  <path class="st2" d="M256,24l88,136,152,40-96,128,8,160-152-56-152,56,8-160L16,200l152-40L256,24M256,12c-4.1,0-7.9,2.1-10.1,5.5l-85.5,132.1L12.9,188.4c-3.9,1-7,3.9-8.3,7.7-1.3,3.8-.7,7.9,1.7,11.1l93.4,124.5-7.8,155.7c-.2,4,1.6,7.9,4.9,10.3,2.1,1.5,4.6,2.3,7.1,2.3s2.8-.2,4.1-.7l147.9-54.5,147.9,54.5c1.3.5,2.8.7,4.1.7,2.5,0,5-.8,7.1-2.3,3.2-2.4,5.1-6.2,4.9-10.3l-7.8-155.7,93.4-124.5c2.4-3.2,3-7.4,1.7-11.1-1.3-3.8-4.4-6.6-8.3-7.7l-147.5-38.8L266.1,17.5c-2.2-3.4-6-5.5-10.1-5.5h0Z"/>
  <g>
    <polygon class="st0" points="496 200 400 328 408 488 256 400 128 456 136 316 16 200 192 184 256 24 320 184 496 200"/>
    <polygon class="st1" points="496 200 320 184 256 24 344 160 496 200"/>
    <polygon class="st3" points="408 488 256 432 104 488 112 328 16 200 136 316 128 456 256 400 408 488"/>
    <polygon class="st3" points="256 24 192 184 168 160 256 24"/>
    <polygon class="st1" points="192 184 16 200 168 160 192 184"/>
  </g>
</svg>